<svg width="329" height="379" viewBox="0 0 329 379" fill="none" xmlns="http://www.w3.org/2000/svg">
<path d="M169.351 251.531C170.341 250.681 171.321 249.811 172.331 249.001C180.711 242.291 189.121 235.611 197.461 228.851C199.111 227.521 200.791 226.911 202.921 226.921C216.571 226.981 230.231 227.311 243.861 226.841C257.601 226.371 269.821 221.211 280.271 212.301C293.311 201.191 301.051 187.101 302.491 169.911C304.051 151.371 298.551 135.051 285.951 121.341C275.281 109.731 261.991 103.021 246.211 101.651C241.001 101.201 235.751 101.301 230.511 101.181C227.281 101.111 227.081 100.991 227.091 97.7913C227.131 89.4713 227.311 81.1513 225.131 73.0113C219.861 53.3913 208.021 39.2313 189.521 30.8613C174.241 23.9413 158.431 23.7113 142.801 29.1713C128.771 34.0713 117.801 43.2413 110.111 56.0913C103.751 66.7213 100.801 78.2413 101.271 90.6413C101.361 93.1313 101.191 95.6413 101.321 98.1313C101.431 100.381 100.581 101.211 98.2908 101.221C92.8908 101.221 87.4708 101.241 82.0908 101.651C68.8608 102.651 57.2808 107.861 47.3308 116.471C33.7508 128.221 26.2808 143.261 25.5808 161.171C24.9108 178.401 30.1808 193.811 42.1108 206.611C54.4208 219.831 69.5708 226.711 87.6808 226.921C88.4308 226.921 89.1808 226.931 89.9308 226.951C92.7208 227.031 92.9608 227.361 91.8708 229.821C89.0008 236.281 86.0108 242.691 83.2708 249.211C82.2908 251.541 80.9508 252.291 78.5008 251.981C69.7708 250.901 61.3108 248.781 53.2808 245.191C37.3208 238.051 24.3108 227.331 14.6708 212.681C3.53083 195.751 -1.32922 177.001 0.31078 156.941C2.27078 132.911 12.6508 112.751 31.0108 97.0113C43.5108 86.2913 57.9608 79.4013 74.3508 76.9413C76.2708 76.6513 76.7408 75.5013 76.9808 73.9313C79.0408 60.7113 83.9808 48.6113 91.7708 37.7813C106.191 17.7413 125.531 5.14128 149.971 1.22128C172.931 -2.46872 194.231 2.19129 213.631 15.3613C228.781 25.6513 239.701 39.2513 246.321 56.2113C248.511 61.8313 249.771 67.8213 251.211 73.7013C251.721 75.7913 252.551 76.6713 254.731 77.0113C266.131 78.8113 276.611 83.0413 286.441 89.0913C297.851 96.1213 307.161 105.241 314.281 116.531C326.411 135.761 330.671 156.651 326.951 179.121C324.201 195.751 317.061 210.351 305.821 222.781C290.161 240.091 270.671 250.291 247.241 251.981C236.971 252.721 226.611 252.451 216.301 252.501C201.731 252.571 187.161 252.521 172.601 252.501C171.571 252.501 170.541 252.331 169.521 252.251C169.471 252.001 169.411 251.751 169.361 251.501L169.351 251.531Z" fill="#010101"/>
<path d="M56.1509 378.111C62.4109 357.721 68.6609 337.411 75.0309 316.661C69.5509 316.621 64.5309 316.651 59.1209 316.641C57.7509 316.641 57.6609 316.431 58.2109 314.621C63.8309 296.041 69.5709 277.551 75.1209 258.931C75.7409 256.831 76.4809 256.061 78.0409 256.111C88.3409 256.411 98.6509 256.421 108.951 256.321C110.431 256.321 110.511 256.541 109.891 258.571C104.141 277.791 98.0209 296.811 92.4909 316.101C98.2109 316.131 103.741 316.161 109.431 316.181C108.511 318.451 57.1109 378.151 56.1509 378.111Z" fill="#FBE04C"/>
<path d="M108.361 256.421C117.121 270.311 125.891 284.191 134.821 298.351C136.021 281.961 136.551 265.541 137.451 249.131C137.481 248.281 137.931 248.101 138.601 247.921C148.521 245.341 158.241 242.791 168.181 240.191C166.701 270.921 165.061 301.621 163.541 332.351C163.051 334.291 163.911 342.831 162.121 342.951C152.511 345.441 142.901 347.951 133.311 350.501C132.461 350.721 132.121 350.441 131.711 349.791C125.621 340.101 119.511 330.411 113.391 320.731C110.941 316.221 107.101 312.131 105.461 307.341C106.381 290.391 107.051 273.411 108.121 256.471C108.201 256.451 108.281 256.431 108.361 256.411V256.421Z" fill="#010101"/>
</svg>
